<?xml version="1.0" encoding="UTF-8" standalone="no"?>
<!-- Created with Inkscape (http://www.inkscape.org/) -->

<svg
   width="35.854141mm"
   height="17.478025mm"
   viewBox="0 0 35.85414 17.478025"
   version="1.1"
   id="svg5"
   xmlns:inkscape="http://www.inkscape.org/namespaces/inkscape"
   xmlns:sodipodi="http://sodipodi.sourceforge.net/DTD/sodipodi-0.dtd"
   xmlns="http://www.w3.org/2000/svg"
   xmlns:svg="http://www.w3.org/2000/svg">
  <sodipodi:namedview
     id="namedview7"
     pagecolor="#ffffff"
     bordercolor="#000000"
     borderopacity="0.25"
     inkscape:showpageshadow="2"
     inkscape:pageopacity="0.0"
     inkscape:pagecheckerboard="0"
     inkscape:deskcolor="#d1d1d1"
     inkscape:document-units="mm"
     showgrid="false" />
  <defs
     id="defs2" />
  <g
     inkscape:label="Layer 1"
     inkscape:groupmode="layer"
     id="layer1"
     transform="translate(-0.68720275,-21.794718)">
    <path
       id="path1774"
       style="fill:#f9f9f9;stroke-width:0.220126"
       d="m 20.304093,21.794717 a 8.9347229,4.0896877 0 0 0 -8.140588,2.407999 8.02738,4.8603824 0 0 0 -3.4488857,-0.471799 8.02738,4.8603824 0 0 0 -8.02741655,4.86071 8.02738,4.8603824 0 0 0 6.56600755,4.77558 8.7588549,4.6546536 0 0 0 -0.3260783,1.250857 8.7588549,4.6546536 0 0 0 8.759155,4.654678 8.7588549,4.6546536 0 0 0 7.577315,-2.325372 6.1842446,3.3878148 0 0 0 5.18573,1.542736 6.1842446,3.3878148 0 0 0 6.184636,-3.387724 6.1842446,3.3878148 0 0 0 -0.198955,-0.850955 11.682148,5.8836852 0 0 0 2.106332,-3.363759 11.682148,5.8836852 0 0 0 -7.360274,-5.465929 8.9347229,4.0896877 0 0 0 -8.876978,-3.627022 z"
       inkscape:export-filename="cloud1.svg"
       inkscape:export-xdpi="96"
       inkscape:export-ydpi="96" />
  </g>
</svg>
