<?xml version="1.0" encoding="UTF-8" standalone="no"?>
<!-- Created with Inkscape (http://www.inkscape.org/) -->

<svg
   width="41.44088mm"
   height="5.0932465mm"
   viewBox="0 0 41.440879 5.0932464"
   version="1.1"
   id="svg5"
   xmlns:inkscape="http://www.inkscape.org/namespaces/inkscape"
   xmlns:sodipodi="http://sodipodi.sourceforge.net/DTD/sodipodi-0.dtd"
   xmlns="http://www.w3.org/2000/svg"
   xmlns:svg="http://www.w3.org/2000/svg">
  <sodipodi:namedview
     id="namedview7"
     pagecolor="#ffffff"
     bordercolor="#000000"
     borderopacity="0.25"
     inkscape:showpageshadow="2"
     inkscape:pageopacity="0.0"
     inkscape:pagecheckerboard="0"
     inkscape:deskcolor="#d1d1d1"
     inkscape:document-units="mm"
     showgrid="false" />
  <defs
     id="defs2" />
  <g
     inkscape:label="Layer 1"
     inkscape:groupmode="layer"
     id="layer1"
     transform="translate(-1.668632,-45.195156)">
    <path
       id="path1787"
       style="fill:#ffffff;stroke-width:0.146479"
       d="m 11.601359,45.195171 a 9.932847,2.262838 0 0 0 -9.932727,2.262867 9.932847,2.262838 0 0 0 9.404594,2.258432 8.9774904,0.76429236 0 0 0 8.686808,0.571933 8.9774904,0.76429236 0 0 0 8.661487,-0.563697 11.01316,1.3485242 0 0 0 8.170561,-0.537405 3.5680749,0.54643517 0 0 0 2.949174,0.239163 3.5680749,0.54643517 0 0 0 3.568257,-0.546433 3.5680749,0.54643517 0 0 0 -3.568257,-0.546433 3.5680749,0.54643517 0 0 0 -0.748792,0.01235 11.01316,1.3485242 0 0 0 -11.01018,-1.315716 11.01316,1.3485242 0 0 0 -0.276469,0.0011 5.9124765,1.1996056 0 0 0 0.09715,-0.212871 5.9124765,1.1996056 0 0 0 -5.9123,-1.199619 5.9124765,1.1996056 0 0 0 -3.250448,0.1983 9.932847,2.262838 0 0 0 -6.838859,-0.621984 z"
       inkscape:export-filename="cloud4.svg"
       inkscape:export-xdpi="96"
       inkscape:export-ydpi="96" />
  </g>
</svg>
