<?xml version="1.0" encoding="UTF-8" standalone="no"?>
<!-- Created with Inkscape (http://www.inkscape.org/) -->

<svg
   width="42.164093mm"
   height="9.5472202mm"
   viewBox="0 0 42.164092 9.5472201"
   version="1.1"
   id="svg5"
   xmlns="http://www.w3.org/2000/svg"
   xmlns:svg="http://www.w3.org/2000/svg">
  <defs
     id="defs2" />
  <g
     id="layer1"
     transform="translate(58.79554,22.710178)">
    <path
       id="path2984"
       style="fill:#000000;stroke-width:0.264583"
       d="m -48.300758,-22.71018 c 0,0 -0.709959,1.521894 -1.674834,3.025655 -0.09793,-0.352924 -0.142627,-0.608231 -0.142627,-0.608231 0,0 0.100885,-1.280069 -0.178283,0.165881 -0.05546,0.287235 -0.05199,0.610926 -0.01292,0.944129 -0.239183,0.34837 -0.489257,0.685475 -0.745175,0.992704 -0.108535,-0.04492 -0.217497,-0.08954 -0.324011,-0.134359 -0.322158,-0.556223 -0.624213,-1.255157 -0.851111,-2.131653 -0.61044,-2.358103 -0.172634,-0.06515 -0.229443,1.671733 -1.196894,-0.513539 -1.793717,-0.753977 -0.273368,0.207739 0.08783,0.05556 0.171102,0.112183 0.251664,0.168982 -0.04843,0.56589 -0.169935,1.017929 -0.431498,1.134815 -0.207699,0.09281 -0.654854,0.01585 -1.212329,-0.149862 -0.07419,-0.114077 -0.146089,-0.242482 -0.214458,-0.390157 -0.816618,-1.763893 -0.719753,-1.10099 -0.351916,0.205155 -2.357305,-0.824342 -5.761826,-2.601341 -3.181201,-0.968933 3.471545,2.195972 1.161686,5.413623 1.161686,5.413623 h 5.139738 28.123865 3.421497 1.718758 c 0,0 2.92035,-8.690771 1.049548,-4.649845 -0.70529,1.523424 -1.736885,1.201416 -2.748669,0.209806 0.28181,-0.336655 0.654927,-0.665448 1.142049,-0.973584 2.056464,-1.300843 0.308846,-0.43581 -1.677934,0.38654 -1.465353,-1.759153 -2.753837,-4.520138 -2.753837,-4.520138 0,0 -0.723059,0.393037 -0.889351,1.539441 0.023,-0.466779 -0.02207,-0.441742 -0.321428,0.714685 -0.269491,1.041034 -0.645162,1.833081 -1.034562,2.43086 -0.304946,-0.349485 -0.603222,-0.745314 -0.886251,-1.157552 0.03908,-0.333207 0.04254,-0.656891 -0.01292,-0.944129 -0.279169,-1.44595 -0.177767,-0.165881 -0.177767,-0.165881 0,0 -0.0447,0.255307 -0.142627,0.608231 -0.964875,-1.503761 -1.674833,-3.025655 -1.674833,-3.025655 0,0 -0.703334,0.382903 -0.882117,1.493449 -0.946868,0.288407 -2.117558,0.739402 -2.920235,1.061951 -0.490078,-0.457846 -0.665978,-0.577883 -0.716235,-0.580326 0.03665,-0.262318 0.04478,-0.489742 0.02325,-0.640271 -0.09199,-0.643224 -5.368148,1.598868 -5.368148,1.598868 0,0 6.688666,-1.464896 -0.06925,0.944646 -0.388632,-0.138566 -0.765889,-0.273685 -1.069185,-0.387574 0.08319,-0.24485 0.198723,-0.484837 0.316259,-0.697115 0.377888,0.07544 0.683163,0.140043 0.683163,0.140043 0,0 -0.258942,-0.109019 -0.615983,-0.254764 0.206476,-0.353645 0.398942,-0.607198 0.398942,-0.607198 0,0 0.256627,-0.4136 -0.703833,0.483691 -1.51381,-0.608312 -4.379569,-1.693999 -4.447274,-1.220597 -0.02153,0.150526 -0.0134,0.37796 0.02325,0.640271 -0.06164,0.0034 -0.306597,0.177329 -1.085721,0.932242 -0.07562,-0.290425 -0.110071,-0.489892 -0.110071,-0.489892 0,0 0.100885,-1.280069 -0.178284,0.165881 -0.03864,0.200128 -0.04854,0.418203 -0.03824,0.644405 -0.297998,0.29438 -0.651261,0.648612 -1.083138,1.090373 -0.307279,-0.544805 -0.594233,-1.223364 -0.811836,-2.063957 -0.299364,-1.156427 -0.34443,-1.181464 -0.321428,-0.714685 -0.166292,-1.146404 -0.889351,-1.539441 -0.889351,-1.539441 z m 4.525822,2.032951 c 0.131418,0.855624 0.567329,2.052054 1.346688,2.304769 0.2821,0.09147 -0.124068,0.417209 -0.829407,0.772046 -0.146333,3.58e-4 -0.279547,-0.0067 -0.399976,-0.02119 -0.44917,-0.315214 -0.762363,-0.891937 -0.970483,-1.42937 0.21157,-0.781832 0.833024,-1.5875 0.833024,-1.5875 0,0 0.01078,-0.01827 0.02015,-0.03876 z m 10.813293,0 c 0.0094,0.02048 0.02015,0.03876 0.02015,0.03876 0,0 0.192466,0.253553 0.398942,0.607198 -0.357041,0.145745 -0.615983,0.254764 -0.615983,0.254764 0,0 0.30515,-0.06458 0.683162,-0.140043 0.117537,0.212278 0.233068,0.452265 0.31626,0.697115 -0.477903,0.179455 -1.078783,0.393958 -1.774052,0.636137 0.546432,-0.447717 0.862921,-1.386896 0.971517,-2.093929 z m -14.417208,0.03566 c 0.0672,0.982327 0.16787,2.570578 -0.187585,3.167765 -0.250697,0.0888 -0.479361,0.109534 -0.68678,0.07752 0.01816,-0.195071 0.08475,-0.426368 0.20929,-0.699182 0.483559,-1.059314 0.657683,-1.893817 0.665075,-2.546098 z m 23.161377,0 c 0.0074,0.652281 0.181517,1.486784 0.665076,2.546098 0.156813,0.343524 0.221793,0.621239 0.213424,0.843359 -0.211278,0.02933 -0.379377,0.02641 -0.484725,-0.02067 -0.5951,-0.265935 -0.471652,-2.230324 -0.393775,-3.368787 z m -16.980875,0.417546 c 0.350884,-0.0038 1.059542,0.112473 1.671732,0.227376 -0.153948,0.146688 -0.337116,0.325001 -0.54622,0.53175 -1.439021,-0.571243 -1.550168,-0.754558 -1.125512,-0.759126 z m 10.800374,0 c 0.424656,0.0046 0.313509,0.187883 -1.125513,0.759126 -0.209103,-0.206749 -0.392271,-0.385062 -0.54622,-0.53175 0.612191,-0.114903 1.320849,-0.231152 1.671733,-0.227376 z m 1.523421,1.701704 c 0.05567,0.138671 0.114714,0.279662 0.181901,0.426848 0.06393,0.140037 0.110917,0.268084 0.145728,0.387056 -0.573278,-0.310963 -0.874208,-0.581985 -0.621151,-0.664042 0.104194,-0.03379 0.20151,-0.0854 0.293522,-0.149862 z" />
  </g>
</svg>
