<?xml version="1.0" encoding="UTF-8" standalone="no"?>
<!-- Created with Inkscape (http://www.inkscape.org/) -->

<svg
   width="21.961304mm"
   height="46.581646mm"
   viewBox="0 0 21.961303 46.581645"
   version="1.1"
   id="svg5"
   xmlns="http://www.w3.org/2000/svg"
   xmlns:svg="http://www.w3.org/2000/svg">
  <defs
     id="defs2" />
  <g
     id="layer1"
     transform="translate(56.901818,-55.134754)">
    <path
       id="path3747"
       style="fill:#000000;stroke-width:0.264583"
       d="m -40.655898,55.134753 c -3.156391,1.46e-4 -5.715036,2.559022 -5.714896,5.715413 9.55e-4,2.688559 1.875684,5.01293 4.503084,5.583122 l -0.927698,3.377272 c -0.0017,0.0021 -0.0035,0.0041 -0.0052,0.0062 l -0.512008,0.430765 -13.40435,11.422041 c -0.221352,0.188621 -0.247532,0.518656 -0.05891,0.740007 l 0.21239,0.24908 c 0.188621,0.221352 0.518655,0.248049 0.740007,0.05943 l 8.390185,-7.149434 3.846355,-3.127678 -0.969176,5.611964 1.35857,-0.114084 0.563487,-1.751248 c 2.291225,0.481426 3.61402,1.285659 4.80173,1.52706 1.256273,0.255336 2.0139,1.31931 2.35606,0.357788 0.240211,-0.675029 -2.646068,-1.744968 -6.793319,-3.446783 l -2.123632,2.196912 -2.539331,11.539606 c -0.08397,0.363563 0.13503,0.723189 0.492476,0.819072 l -0.645955,6.837825 c -0.01243,0.131575 0.08337,0.247284 0.214974,0.259416 l 0.896069,0.08268 c 0.131603,0.01213 0.248022,-0.08392 0.260449,-0.215491 l 0.670244,-7.100341 5.441011,4.083988 -1.27124,8.162805 c -0.02114,0.13574 0.07154,0.26227 0.207222,0.28371 l 0.870232,0.13746 c 0.135685,0.0214 0.26205,-0.0705 0.283186,-0.20619 l 1.345138,-8.639784 c 0.0112,-0.07191 -0.0096,-0.140786 -0.05168,-0.19327 -0.0021,-0.04709 -0.02772,-0.09426 -0.07906,-0.132809 l -6.975285,-5.235856 4.791438,-20.747054 c 3.086185,-0.09311 5.540448,-2.620591 5.542815,-5.708179 1.4e-4,-3.156594 -2.55882,-5.715553 -5.715414,-5.715413 z" />
  </g>
</svg>
