<?xml version="1.0" encoding="UTF-8" standalone="no"?>
<!-- Created with Inkscape (http://www.inkscape.org/) -->

<svg
   width="21.961296mm"
   height="46.581657mm"
   viewBox="0 0 21.961296 46.581657"
   version="1.1"
   id="svg5"
   xmlns="http://www.w3.org/2000/svg"
   xmlns:svg="http://www.w3.org/2000/svg">
  <defs
     id="defs2" />
  <g
     id="layer1"
     transform="translate(90.648995,3.5631349)">
    <path
       id="circle1378"
       style="fill:#000000;stroke-width:0.264583"
       d="m -74.40308,-3.5631348 a 5.7151604,5.7151604 0 0 0 -5.714896,5.715413 5.7151604,5.7151604 0 0 0 4.503084,5.583122 l -0.641305,2.7770918 c -0.0017,0.0021 -0.0035,0.0041 -0.0052,0.0062 l -0.798401,1.030945 -13.40435,11.422041 c -0.221352,0.188621 -0.247532,0.518656 -0.05891,0.740007 l 0.21239,0.24908 c 0.188621,0.221352 0.518655,0.248049 0.740007,0.05943 l 8.390185,-7.149434 -6.414595,8.283215 c -0.178058,0.229934 -0.135883,0.558331 0.09405,0.736389 l 0.258382,0.200505 c 0.229934,0.178058 0.558331,0.136399 0.736389,-0.09353 l 9.510014,-12.280905 -3.683496,15.947864 c -0.08397,0.363563 0.13503,0.723189 0.492476,0.819072 l -0.645955,6.837825 c -0.01243,0.131575 0.08337,0.247284 0.214974,0.259416 l 0.896069,0.08268 c 0.131603,0.01213 0.248022,-0.08392 0.260449,-0.215491 l 0.670244,-7.100341 5.441011,4.083988 -1.27124,8.162809 c -0.02114,0.135733 0.07154,0.262268 0.207222,0.283704 l 0.870232,0.137459 c 0.135685,0.02144 0.26205,-0.07046 0.283186,-0.206189 l 1.345138,-8.639782 c 0.0112,-0.07191 -0.0096,-0.140786 -0.05168,-0.19327 -0.0021,-0.04709 -0.02772,-0.09426 -0.07906,-0.132809 l -6.975285,-5.235856 4.791438,-20.7470538 a 5.7151604,5.7151604 0 0 0 5.542815,-5.708179 5.7151604,5.7151604 0 0 0 -5.715414,-5.715413 z" />
  </g>
</svg>
