<?xml version="1.0" encoding="UTF-8" standalone="no"?>
<!-- Created with Inkscape (http://www.inkscape.org/) -->

<svg
   width="21.961071mm"
   height="50.966507mm"
   viewBox="0 0 21.961071 50.966506"
   version="1.1"
   id="svg5"
   xmlns="http://www.w3.org/2000/svg"
   xmlns:svg="http://www.w3.org/2000/svg">
  <defs
     id="defs2" />
  <g
     id="layer1"
     transform="translate(61.359753,3.4542131)">
    <path
       d="m -45.113539,-3.4542131 c -3.156593,-1.39e-4 -5.715553,2.55881999 -5.715413,5.715414 10e-4,2.688715 1.875995,5.01314 4.503601,5.583121 l -0.641305,2.7776081 c -0.0016,0.002 -0.0036,0.0036 -0.0052,0.0057 l -0.7984,1.030945 -13.40435,11.422559 c -0.221351,0.188621 -0.248049,0.518655 -0.05943,0.740007 l 0.21239,0.248563 c 0.188621,0.221352 0.518655,0.248049 0.740007,0.05943 l 8.391735,-7.150984 -6.415629,8.284765 c -0.178058,0.229934 -0.136399,0.558331 0.09353,0.736389 l 0.258899,0.200505 c 0.229933,0.178058 0.558331,0.136399 0.736389,-0.09353 l 9.510014,-12.280905 -3.54087,15.331364 c -0.02419,0.03129 -0.03414,0.07176 -0.02687,0.116272 l -0.09663,0.417546 c -0.01313,0.02081 -0.02526,0.042 -0.03566,0.06511 l -7.594368,16.881657 c -0.119306,0.265217 -0.0017,0.574709 0.263549,0.694015 l 0.298173,0.134358 c 0.265218,0.119306 0.575226,0.0017 0.694532,-0.263549 l 7.319449,-16.270842 3.184819,6.132959 -4.900993,6.696749 c -0.08113,0.110854 -0.05745,0.265895 0.05323,0.347266 l 0.710034,0.521931 c 0.110675,0.08137 0.265106,0.05763 0.346232,-0.05323 l 5.163509,-7.056417 c 0.04473,-0.06112 0.05737,-0.135456 0.04134,-0.203605 0.05369,-0.0463 0.06605,-0.122743 0.02325,-0.205156 l -4.061251,-7.822261 4.92373,-21.3201471 c 3.086185,-0.09311 5.540447,-2.620591 5.542815,-5.708178 1.4e-4,-3.15639201 -2.558505,-5.715268 -5.714897,-5.715414 z"
       style="fill:#000000;stroke-width:0.264583"
       id="path3017" />
  </g>
</svg>
