<?xml version="1.0" encoding="UTF-8" standalone="no"?>
<!-- Created with Inkscape (http://www.inkscape.org/) -->

<svg
   width="13.030136mm"
   height="33.307526mm"
   viewBox="0 0 13.030136 33.307525"
   version="1.1"
   id="svg5"
   xmlns="http://www.w3.org/2000/svg"
   xmlns:svg="http://www.w3.org/2000/svg">
  <defs
     id="defs2" />
  <g
     id="layer1"
     transform="translate(-77.47728,-20.314947)">
    <path
       id="rect2617"
       style="fill:#000000;stroke-width:0.211688"
       d="m 83.891059,20.314948 c -1.177261,0 -2.124934,0.947674 -2.124934,2.124935 v 4.414201 L 81.472602,26.44274 c -0.683734,-0.958359 -2.005801,-1.179829 -2.96416,-0.496094 -0.958358,0.683735 -1.179312,2.005801 -0.495577,2.96416 l 3.697966,5.18418 c 0.01784,0.025 0.0366,0.04887 0.05529,0.07286 v 2.87631 L 81.33411,36.438512 c -0.683735,-0.958359 -2.005802,-1.179312 -2.964161,-0.495577 -0.958358,0.683735 -1.179311,2.005802 -0.495577,2.96416 l 3.698483,5.183663 c 0.05974,0.08374 0.124452,0.161727 0.19327,0.234094 v 7.172172 c 0,1.177262 0.947673,2.125452 2.124934,2.125452 1.177262,0 2.124935,-0.94819 2.124935,-2.125452 v -7.83208 c 0.146763,-0.118861 0.280563,-0.259065 0.395842,-0.420646 l 3.698482,-5.183663 c 0.683735,-0.958358 0.462782,-2.280425 -0.495577,-2.96416 -0.958358,-0.683735 -2.280425,-0.462782 -2.96416,0.495577 l -0.634587,0.889351 v -14.04152 c 0,-1.177261 -0.947673,-2.124935 -2.124935,-2.124935 z" />
  </g>
</svg>
