<?xml version="1.0" encoding="UTF-8" standalone="no"?>
<!-- Created with Inkscape (http://www.inkscape.org/) -->

<svg
   width="13.165009mm"
   height="40.263695mm"
   viewBox="0 0 13.165008 40.263694"
   version="1.1"
   id="svg5"
   xmlns="http://www.w3.org/2000/svg"
   xmlns:svg="http://www.w3.org/2000/svg">
  <defs
     id="defs2" />
  <g
     id="layer1"
     transform="translate(-95.605889,-16.885954)">
    <path
       id="rect2625"
       style="fill:#000000;stroke-width:0.232746"
       d="m 102.06876,16.885954 c -1.17726,0 -2.124933,1.145707 -2.124933,2.568836 v 4.000789 L 99.46272,22.781202 c -0.683735,-0.958359 -2.005802,-1.179312 -2.964161,-0.495577 -0.958358,0.683735 -1.179311,2.005801 -0.495577,2.96416 l 3.698483,5.183663 c 0.07372,0.103328 0.155061,0.197727 0.242362,0.283704 v 9.853145 l -0.431498,-0.604614 c -0.683735,-0.958359 -2.005802,-1.179312 -2.96416,-0.495577 -0.958359,0.683735 -1.179312,2.005801 -0.495577,2.96416 l 3.697965,5.183663 c 0.05961,0.08355 0.124621,0.161343 0.19327,0.233577 v 6.729305 c 0,1.42313 0.947673,2.568836 2.124933,2.568836 1.17726,0 2.12545,-1.145706 2.12545,-2.568836 V 39.094935 c 0.18072,-0.131647 0.34378,-0.293782 0.48111,-0.486275 l 3.69848,-5.18418 c 0.68374,-0.958359 0.46279,-2.279909 -0.49557,-2.963643 -0.95836,-0.683735 -2.28043,-0.462782 -2.96416,0.495577 l -0.71986,1.008723 V 19.45479 c 0,-1.423129 -0.94819,-2.568836 -2.12545,-2.568836 z" />
  </g>
</svg>
